# xmcd CD database file
#
# Track frame offsets:
#	150
#	18110
#	40850
#	65825
#	86460
#	112310
#	138900
#	156252
#	158912
#	170457
#	187467
#	216070
#	239845
#
# Disc length: 3481 seconds
#
# Revision: 0
# Processed by: cddbd v1.4PL0 Copyright (c) Steve Scherf et al.
# Submitted via: CDex 1.50Beta7
#
DISCID=be0d970d
DTITLE=radio ethiopia - radio ethiopia
DYEAR=1900
DGENRE=Rhythmic Soul
TTITLE0=gazel
TTITLE1=tanz auf dem vulkan (volkanda dans)
TTITLE2=ukala
TTITLE3=nufunukulu (seninle konusmak istiyorum)
TTITLE4=traumverkaufer/maishanindoto
TTITLE5=cokertme
TTITLE6=yemen
TTITLE7=rift valley blues
TTITLE8=balegareo (arabaci)
TTITLE9=le bei (kalbim)
TTITLE10=mchungaji (coban)
TTITLE11=dunia inatisha (dunya korkutucu)
TTITLE12=sinanay
EXTD=
EXTT0=
EXTT1=
EXTT2=
EXTT3=
EXTT4=
EXTT5=
EXTT6=
EXTT7=
EXTT8=
EXTT9=
EXTT10=
EXTT11=
EXTT12=
PLAYORDER=
